<?xml version="1.0" encoding="UTF-8"?>
<svg id="Layer_2" data-name="Layer 2" xmlns="http://www.w3.org/2000/svg" viewBox="0 0 299.41 169.73">
  <defs>
    <style>
      .cls-1, .cls-2, .cls-3, .cls-4, .cls-5 {
        stroke-width: 0px;
      }

      .cls-2 {
        fill: #c1272d;
      }

      .cls-3 {
        fill: #8cc63f;
      }

      .cls-4 {
        fill: #fff;
      }

      .cls-5 {
        fill: #fbb03b;
      }
    </style>
  </defs>
  <g id="Layer_1-2" data-name="Layer 1">
    <g id="white">
      <path class="cls-5" d="M239.01,97.25h0c0,7.04-5.71,12.75-12.75,12.75h-38.25v-38.25c0-7.04,5.71-12.75,12.75-12.75h0c7.04,0,12.75,5.71,12.75,12.75v12.75h12.75c7.04,0,12.75,5.71,12.75,12.75Z"/>
      <path class="cls-3" d="M297.01,97.25h0c0,7.04-5.71,12.75-12.75,12.75h-38.25v-38.25c0-7.04,5.71-12.75,12.75-12.75h0c7.04,0,12.75,5.71,12.75,12.75v12.75h12.75c7.04,0,12.75,5.71,12.75,12.75Z"/>
      <path class="cls-2" d="M239.01,38.25h0c0,7.04-5.71,12.75-12.75,12.75h-38.25V12.75C188.01,5.71,193.71,0,200.76,0h0c7.04,0,12.75,5.71,12.75,12.75v12.75h12.75c7.04,0,12.75,5.71,12.75,12.75Z"/>
      <rect class="cls-4" x="1.01" y="5" width="167" height="46" rx="6.85" ry="6.85"/>
      <g>
        <path class="cls-1" d="M33.26,14.57v18.94c0,.76-.62,1.38-1.38,1.38h-10.56c-.76,0-1.38.62-1.38,1.38v5.98c0,.76-.62,1.38-1.38,1.38h-7.18c-.76,0-1.38-.62-1.38-1.38V14.57c0-.76.62-1.38,1.38-1.38h20.49c.76,0,1.38.62,1.38,1.38ZM21.44,27.55h.39c.76,0,1.38-.62,1.38-1.38v-4.42c0-.76-.62-1.38-1.38-1.38h-.39c-.76,0-1.38.62-1.38,1.38v4.42c0,.76.62,1.38,1.38,1.38Z"/>
        <path class="cls-1" d="M45.48,14.57v27.67c0,.76-.62,1.38-1.38,1.38h-6.83c-.76,0-1.38-.62-1.38-1.38V14.57c0-.76.62-1.38,1.38-1.38h6.83c.76,0,1.38.62,1.38,1.38Z"/>
        <path class="cls-1" d="M103.24,14.57v5.28c0,.76-.62,1.38-1.38,1.38h-10.21c-.76,0-1.38.62-1.38,1.38v.35c0,.76.62,1.38,1.38,1.38h10.21c.76,0,1.38.62,1.38,1.38v5.4c0,.76-.62,1.38-1.38,1.38h-10.21c-.76,0-1.38.62-1.38,1.38v.35c0,.76.62,1.38,1.38,1.38h10.21c.76,0,1.38.62,1.38,1.38v5.28c0,.76-.62,1.38-1.38,1.38h-20.26c-.76,0-1.38-.62-1.38-1.38V14.57c0-.76.62-1.38,1.38-1.38h20.26c.76,0,1.38.62,1.38,1.38Z"/>
        <path class="cls-1" d="M115.82,14.57v19.64c0,.76.62,1.38,1.38,1.38h10.29c.76,0,1.38.62,1.38,1.38v5.28c0,.76-.62,1.38-1.38,1.38h-19.99c-.76,0-1.38-.62-1.38-1.38V14.57c0-.76.62-1.38,1.38-1.38h6.95c.76,0,1.38.62,1.38,1.38Z"/>
        <path class="cls-1" d="M124.51,27.78h-.8c-.97,0-1.64-.98-1.28-1.88l1.43-3.66c.29-.73-.25-1.53-1.04-1.53h0c-.62,0-1.12-.5-1.12-1.12v-4.3c0-.76.62-1.38,1.38-1.38h4.46c.76,0,1.38.62,1.38,1.38v4.72c0,.2-.05.41-.13.59l-3.03,6.38c-.23.48-.71.79-1.25.79Z"/>
        <path class="cls-1" d="M149.18,34.21v-.35c0-.76-.62-1.38-1.38-1.38h-11.37c-.76,0-1.38-.62-1.38-1.38V14.57c0-.76.62-1.38,1.38-1.38h21.19c.76,0,1.38.62,1.38,1.38v5.28c0,.76-.62,1.38-1.38,1.38h-11.37c-.76,0-1.38.62-1.38,1.38v.35c0,.76.62,1.38,1.38,1.38h11.37c.76,0,1.38.62,1.38,1.38v16.54c0,.76-.62,1.38-1.38,1.38h-21.19c-.76,0-1.38-.62-1.38-1.38v-5.28c0-.76.62-1.38,1.38-1.38h11.37c.76,0,1.38-.62,1.38-1.38Z"/>
      </g>
      <path class="cls-1" d="M57.25,44h-6.51c-1.07,0-1.54-.47-1.54-1.55v-4.61c0-2.67.34-3.53,1.63-5.29l3.47-4.69-3.47-4.69c-1.33-1.77-1.63-2.63-1.63-5.3v-3.32c0-1.08.47-1.55,1.54-1.55h6.59c1.07,0,1.54.47,1.54,1.55v2.97c0,.6,0,1.25.39,1.81l1.88,2.71c.3.47.56.73,1.03.73h.51c.47,0,.69-.26,1.03-.73l1.93-2.71c.39-.56.39-1.21.39-1.81v-2.97c0-1.08.47-1.55,1.54-1.55h6.51c1.07,0,1.54.47,1.54,1.55v3.32c0,2.67-.34,3.53-1.63,5.3l-3.47,4.74,3.47,4.65c1.33,1.76,1.63,2.63,1.63,5.29v4.61c0,1.08-.47,1.55-1.54,1.55h-6.51c-1.07,0-1.54-.47-1.54-1.55v-4.26c0-.6.04-1.21-.39-1.81l-1.88-2.71c-.34-.52-.56-.73-1.03-.73h-.6c-.47,0-.69.22-1.03.73l-1.93,2.71c-.43.6-.39,1.2-.39,1.81v4.26c0,1.08-.47,1.55-1.54,1.55Z"/>
      <g>
        <path class="cls-4" d="M3.88,109.82c-1.8,0-2.59-.79-2.59-2.59v-46.58c0-1.8.79-2.59,2.59-2.59h11.14c1.8,0,2.59.79,2.59,2.59v35.58h9.85v-11.65c0-1.8.79-2.59,2.59-2.59h10.42c1.8,0,2.59.79,2.59,2.59v22.64c0,1.8-.79,2.59-2.59,2.59H3.88Z"/>
        <path class="cls-4" d="M50.11,107.24v-8.55c0-1.8.79-2.59,2.59-2.59h7.12v-24.15h-7.12c-1.8,0-2.59-.79-2.59-2.59v-8.7c0-1.8.79-2.59,2.59-2.59h30.62c1.8,0,2.59.79,2.59,2.59v8.7c0,1.8-.79,2.59-2.59,2.59h-6.97v24.15h6.97c1.8,0,2.59.79,2.59,2.59v8.55c0,1.8-.79,2.59-2.59,2.59h-30.62c-1.8,0-2.59-.79-2.59-2.59Z"/>
        <path class="cls-4" d="M97.33,109.82c-1.8,0-2.59-.79-2.59-2.59v-46.58c0-1.8.79-2.59,2.59-2.59h32.06c1.8,0,2.59.79,2.59,2.59v8.55c0,1.8-.79,2.59-2.59,2.59h-18.33v7.48h12.51c1.8,0,2.59.79,2.59,2.59v8.63c0,1.8-.79,2.59-2.59,2.59h-12.51v14.16c0,1.8-.79,2.59-2.59,2.59h-11.14Z"/>
        <path class="cls-4" d="M141.76,109.82c-1.8,0-2.59-.79-2.59-2.59v-46.58c0-1.8.79-2.59,2.59-2.59h33.35c1.8,0,2.59.79,2.59,2.59v8.41c0,1.8-.79,2.59-2.59,2.59h-19.84v5.54h14.02c1.8,0,2.59.79,2.59,2.59v7.69c0,1.8-.79,2.59-2.59,2.59h-14.02v6.18h19.84c1.8,0,2.59.79,2.59,2.59v8.41c0,1.8-.79,2.59-2.59,2.59h-33.35Z"/>
        <path class="cls-4" d="M2.59,169.73c-1.8,0-2.59-.79-2.59-2.59v-8.41c0-1.8.79-2.59,2.59-2.59h19.34c1.22,0,1.87-.93,1.87-2.08,0-1.65-.65-2.3-1.87-2.44l-10.78-1.51c-6.76-1.01-11.14-3.88-11.14-11.93v-7.55c0-8.19,5.54-12.65,14.88-12.65h20.13c1.8,0,2.59.79,2.59,2.59v8.55c0,1.8-.79,2.59-2.59,2.59h-16.75c-1.22,0-1.94.86-1.94,2.16s.72,2.16,1.94,2.3l10.71,1.44c6.76,1.01,11.21,3.88,11.21,11.93v7.55c0,8.19-5.61,12.65-14.88,12.65H2.59Z"/>
        <path class="cls-4" d="M54.92,169.73c-1.8,0-2.59-.79-2.59-2.59v-46.58c0-1.8.79-2.59,2.59-2.59h33.35c1.8,0,2.59.79,2.59,2.59v8.41c0,1.8-.79,2.59-2.59,2.59h-19.84v5.54h14.02c1.8,0,2.59.79,2.59,2.59v7.69c0,1.8-.79,2.59-2.59,2.59h-14.02v6.18h19.84c1.8,0,2.59.79,2.59,2.59v8.41c0,1.8-.79,2.59-2.59,2.59h-33.35Z"/>
        <path class="cls-4" d="M106.25,169.73c-1.8,0-2.59-.79-2.59-2.59v-46.58c0-1.8.79-2.59,2.59-2.59h23.94c10.78,0,14.16,4.89,14.16,12v3.31c0,4.03-1.01,6.9-4.03,8.19,5.25.58,8.7,4.38,8.7,10.42v15.24c0,1.8-.79,2.59-2.59,2.59h-11.14c-1.8,0-2.59-.79-2.59-2.59v-11c0-2.16-.72-3.09-2.73-3.09h-10.06v14.09c0,1.8-.79,2.59-2.59,2.59h-11.07ZM119.91,140.11h5.39c2.52,0,3.16-1.44,3.16-3.38v-2.44c0-1.94-.65-3.38-3.16-3.38h-5.39v9.2Z"/>
        <path class="cls-4" d="M160.24,167.14v-8.55c0-1.8.79-2.59,2.59-2.59h7.12v-24.15h-7.12c-1.8,0-2.59-.79-2.59-2.59v-8.7c0-1.8.79-2.59,2.59-2.59h30.62c1.8,0,2.59.79,2.59,2.59v8.7c0,1.8-.79,2.59-2.59,2.59h-6.97v24.15h6.97c1.8,0,2.59.79,2.59,2.59v8.55c0,1.8-.79,2.59-2.59,2.59h-30.62c-1.8,0-2.59-.79-2.59-2.59Z"/>
        <path class="cls-4" d="M211.78,169.73c-1.8,0-2.59-.79-2.59-2.59v-46.58c0-1.8.79-2.59,2.59-2.59h33.35c1.8,0,2.59.79,2.59,2.59v8.41c0,1.8-.79,2.59-2.59,2.59h-19.84v5.54h14.02c1.8,0,2.59.79,2.59,2.59v7.69c0,1.8-.79,2.59-2.59,2.59h-14.02v6.18h19.84c1.8,0,2.59.79,2.59,2.59v8.41c0,1.8-.79,2.59-2.59,2.59h-33.35Z"/>
        <path class="cls-4" d="M261.81,169.73c-1.8,0-2.59-.79-2.59-2.59v-8.41c0-1.8.79-2.59,2.59-2.59h19.34c1.22,0,1.87-.93,1.87-2.08,0-1.65-.65-2.3-1.87-2.44l-10.78-1.51c-6.76-1.01-11.14-3.88-11.14-11.93v-7.55c0-8.19,5.54-12.65,14.88-12.65h20.13c1.8,0,2.59.79,2.59,2.59v8.55c0,1.8-.79,2.59-2.59,2.59h-16.75c-1.22,0-1.94.86-1.94,2.16s.72,2.16,1.94,2.3l10.71,1.44c6.76,1.01,11.21,3.88,11.21,11.93v7.55c0,8.19-5.61,12.65-14.88,12.65h-22.71Z"/>
      </g>
    </g>
  </g>
</svg>