<?xml version="1.0" encoding="UTF-8"?>
<svg id="Layer_2" data-name="Layer 2" xmlns="http://www.w3.org/2000/svg" viewBox="0 0 240.78 165">
  <defs>
    <style>
      .cls-1, .cls-2, .cls-3 {
        stroke-width: 0px;
      }

      .cls-2 {
        fill: #c1272d;
      }

      .cls-3 {
        fill: #fff;
      }
    </style>
  </defs>
  <g id="Layer_1-2" data-name="Layer 1">
    <g id="white">
      <path class="cls-2" d="M239.92,152.25h0c0,7.04-5.71,12.75-12.75,12.75h-38.25v-38.25c0-7.04,5.71-12.75,12.75-12.75h0c7.04,0,12.75,5.71,12.75,12.75v12.75h12.75c7.04,0,12.75,5.71,12.75,12.75Z"/>
      <rect class="cls-3" x="1.92" width="167" height="46" rx="6.85" ry="6.85"/>
      <g>
        <path class="cls-3" d="M15.4,104.94c-1.76,0-2.53-.77-2.53-2.53v-34.54H2.53c-1.76,0-2.53-.77-2.53-2.53v-8.51c0-1.76.77-2.53,2.53-2.53h37.14c1.76,0,2.53.77,2.53,2.53v8.51c0,1.76-.77,2.53-2.53,2.53h-10.34v34.54c0,1.76-.77,2.53-2.53,2.53h-11.4Z"/>
        <path class="cls-3" d="M51.56,104.94c-1.76,0-2.53-.77-2.53-2.53v-45.58c0-1.76.77-2.53,2.53-2.53h10.9c1.76,0,2.53.77,2.53,2.53v15.26h11.75v-15.26c0-1.76.77-2.53,2.53-2.53h10.9c1.76,0,2.53.77,2.53,2.53v45.58c0,1.76-.77,2.53-2.53,2.53h-10.9c-1.76,0-2.53-.77-2.53-2.53v-15.62h-11.75v15.62c0,1.76-.77,2.53-2.53,2.53h-10.9Z"/>
        <path class="cls-3" d="M101.29,102.41v-8.37c0-1.76.77-2.53,2.53-2.53h6.96v-23.63h-6.96c-1.76,0-2.53-.77-2.53-2.53v-8.51c0-1.76.77-2.53,2.53-2.53h29.97c1.76,0,2.53.77,2.53,2.53v8.51c0,1.76-.77,2.53-2.53,2.53h-6.82v23.63h6.82c1.76,0,2.53.77,2.53,2.53v8.37c0,1.76-.77,2.53-2.53,2.53h-29.97c-1.76,0-2.53-.77-2.53-2.53Z"/>
        <path class="cls-3" d="M147.51,104.94c-1.76,0-2.53-.77-2.53-2.53v-45.58c0-1.76.77-2.53,2.53-2.53h23.42c10.55,0,13.86,4.78,13.86,11.75v3.24c0,3.94-.99,6.75-3.94,8.02,5.13.56,8.51,4.29,8.51,10.2v14.91c0,1.76-.77,2.53-2.53,2.53h-10.9c-1.76,0-2.53-.77-2.53-2.53v-10.76c0-2.11-.7-3.02-2.67-3.02h-9.85v13.79c0,1.76-.77,2.53-2.53,2.53h-10.83ZM160.87,75.96h5.28c2.46,0,3.09-1.41,3.09-3.31v-2.39c0-1.9-.63-3.31-3.09-3.31h-5.28v9Z"/>
        <path class="cls-3" d="M199.77,104.94c-1.76,0-2.53-.77-2.53-2.53v-45.58c0-1.76.77-2.53,2.53-2.53h23.71c11.82,0,17.3,4.57,17.3,14.35v21.95c0,9.78-5.49,14.35-17.3,14.35h-23.71ZM213.21,91.64h8.37c2.25,0,3.31-1.05,3.31-3.45v-17.09c0-2.32-1.05-3.38-3.31-3.38h-8.37v23.92Z"/>
        <path class="cls-3" d="M5.42,164.94c-1.76,0-2.53-.77-2.53-2.53v-45.58c0-1.76.77-2.53,2.53-2.53h10.9c1.76,0,2.53.77,2.53,2.53v34.82h9.64v-11.4c0-1.76.77-2.53,2.53-2.53h10.2c1.76,0,2.53.77,2.53,2.53v22.16c0,1.76-.77,2.53-2.53,2.53H5.42Z"/>
        <path class="cls-3" d="M50.65,162.41v-8.37c0-1.76.77-2.53,2.53-2.53h6.96v-23.63h-6.96c-1.76,0-2.53-.77-2.53-2.53v-8.51c0-1.76.77-2.53,2.53-2.53h29.97c1.76,0,2.53.77,2.53,2.53v8.51c0,1.76-.77,2.53-2.53,2.53h-6.82v23.63h6.82c1.76,0,2.53.77,2.53,2.53v8.37c0,1.76-.77,2.53-2.53,2.53h-29.97c-1.76,0-2.53-.77-2.53-2.53Z"/>
        <path class="cls-3" d="M96.86,164.94c-1.76,0-2.53-.77-2.53-2.53v-45.58c0-1.76.77-2.53,2.53-2.53h31.37c1.76,0,2.53.77,2.53,2.53v8.37c0,1.76-.77,2.53-2.53,2.53h-17.94v7.32h12.24c1.76,0,2.53.77,2.53,2.53v8.44c0,1.76-.77,2.53-2.53,2.53h-12.24v13.86c0,1.76-.77,2.53-2.53,2.53h-10.9Z"/>
        <path class="cls-3" d="M140.33,164.94c-1.76,0-2.53-.77-2.53-2.53v-45.58c0-1.76.77-2.53,2.53-2.53h32.64c1.76,0,2.53.77,2.53,2.53v8.23c0,1.76-.77,2.53-2.53,2.53h-19.42v5.42h13.72c1.76,0,2.53.77,2.53,2.53v7.53c0,1.76-.77,2.53-2.53,2.53h-13.72v6.05h19.42c1.76,0,2.53.77,2.53,2.53v8.23c0,1.76-.77,2.53-2.53,2.53h-32.64Z"/>
      </g>
      <g>
        <path class="cls-1" d="M34.17,9.57v18.94c0,.76-.62,1.38-1.38,1.38h-10.56c-.76,0-1.38.62-1.38,1.38v5.98c0,.76-.62,1.38-1.38,1.38h-7.18c-.76,0-1.38-.62-1.38-1.38V9.57c0-.76.62-1.38,1.38-1.38h20.49c.76,0,1.38.62,1.38,1.38ZM22.35,22.55h.39c.76,0,1.38-.62,1.38-1.38v-4.42c0-.76-.62-1.38-1.38-1.38h-.39c-.76,0-1.38.62-1.38,1.38v4.42c0,.76.62,1.38,1.38,1.38Z"/>
        <path class="cls-1" d="M46.4,9.57v27.67c0,.76-.62,1.38-1.38,1.38h-6.83c-.76,0-1.38-.62-1.38-1.38V9.57c0-.76.62-1.38,1.38-1.38h6.83c.76,0,1.38.62,1.38,1.38Z"/>
        <path class="cls-1" d="M104.15,9.57v5.28c0,.76-.62,1.38-1.38,1.38h-10.21c-.76,0-1.38.62-1.38,1.38v.35c0,.76.62,1.38,1.38,1.38h10.21c.76,0,1.38.62,1.38,1.38v5.4c0,.76-.62,1.38-1.38,1.38h-10.21c-.76,0-1.38.62-1.38,1.38v.35c0,.76.62,1.38,1.38,1.38h10.21c.76,0,1.38.62,1.38,1.38v5.28c0,.76-.62,1.38-1.38,1.38h-20.26c-.76,0-1.38-.62-1.38-1.38V9.57c0-.76.62-1.38,1.38-1.38h20.26c.76,0,1.38.62,1.38,1.38Z"/>
        <path class="cls-1" d="M116.73,9.57v19.64c0,.76.62,1.38,1.38,1.38h10.29c.76,0,1.38.62,1.38,1.38v5.28c0,.76-.62,1.38-1.38,1.38h-19.99c-.76,0-1.38-.62-1.38-1.38V9.57c0-.76.62-1.38,1.38-1.38h6.95c.76,0,1.38.62,1.38,1.38Z"/>
        <path class="cls-1" d="M125.42,22.78h-.8c-.97,0-1.64-.98-1.28-1.88l1.43-3.66c.29-.73-.25-1.53-1.04-1.53h0c-.62,0-1.12-.5-1.12-1.12v-4.3c0-.76.62-1.38,1.38-1.38h4.46c.76,0,1.38.62,1.38,1.38v4.72c0,.2-.05.41-.13.59l-3.03,6.38c-.23.48-.71.79-1.25.79Z"/>
        <path class="cls-1" d="M150.09,29.21v-.35c0-.76-.62-1.38-1.38-1.38h-11.37c-.76,0-1.38-.62-1.38-1.38V9.57c0-.76.62-1.38,1.38-1.38h21.19c.76,0,1.38.62,1.38,1.38v5.28c0,.76-.62,1.38-1.38,1.38h-11.37c-.76,0-1.38.62-1.38,1.38v.35c0,.76.62,1.38,1.38,1.38h11.37c.76,0,1.38.62,1.38,1.38v16.54c0,.76-.62,1.38-1.38,1.38h-21.19c-.76,0-1.38-.62-1.38-1.38v-5.28c0-.76.62-1.38,1.38-1.38h11.37c.76,0,1.38-.62,1.38-1.38Z"/>
      </g>
      <path class="cls-1" d="M58.16,39h-6.51c-1.07,0-1.54-.47-1.54-1.55v-4.61c0-2.67.34-3.53,1.63-5.29l3.47-4.69-3.47-4.69c-1.33-1.77-1.63-2.63-1.63-5.3v-3.32c0-1.08.47-1.55,1.54-1.55h6.59c1.07,0,1.54.47,1.54,1.55v2.97c0,.6,0,1.25.39,1.81l1.88,2.71c.3.47.56.73,1.03.73h.51c.47,0,.69-.26,1.03-.73l1.93-2.71c.39-.56.39-1.21.39-1.81v-2.97c0-1.08.47-1.55,1.54-1.55h6.51c1.07,0,1.54.47,1.54,1.55v3.32c0,2.67-.34,3.53-1.63,5.3l-3.47,4.74,3.47,4.65c1.33,1.76,1.63,2.63,1.63,5.29v4.61c0,1.08-.47,1.55-1.54,1.55h-6.51c-1.07,0-1.54-.47-1.54-1.55v-4.26c0-.6.04-1.21-.39-1.81l-1.88-2.71c-.34-.52-.56-.73-1.03-.73h-.6c-.47,0-.69.22-1.03.73l-1.93,2.71c-.43.6-.39,1.2-.39,1.81v4.26c0,1.08-.47,1.55-1.54,1.55Z"/>
    </g>
  </g>
</svg>